<?xml version="1.0" encoding="utf-8"?>
<!-- Svg Vector Icons : http://www.onlinewebfonts.com/icon -->
<!DOCTYPE svg PUBLIC "-//W3C//DTD SVG 1.1//EN" "http://www.w3.org/Graphics/SVG/1.1/DTD/svg11.dtd">
<svg version="1.1" xmlns="http://www.w3.org/2000/svg" xmlns:xlink="http://www.w3.org/1999/xlink" x="0px" y="0px" viewBox="0 0 1000 1000" enable-background="new 0 0 1000 1000" xml:space="preserve">
<metadata> Svg Vector Icons : http://www.onlinewebfonts.com/icon </metadata>
<g><path d="M59.7,957.9l458.5-457.4L59.7,42.1c-11.3,18.2-19.1,47.7-19.1,90.3v368.1v367.2C40.6,910.1,48.4,939.6,59.7,957.9z M711.9,694L561.7,543L115.3,990h4.4c38.2,0,71.2-13.9,124.2-42.6L711.9,694z M768.3,336.4L605.1,500.4l163.3,163.2l99-53.8c36.5-20,92.1-56.4,92.1-109.4c0-53.8-55.6-90.3-92.1-110.3L768.3,336.4z M115.3,10l446.4,447l150.2-151L243.8,52.5c-53-28.6-86-42.5-124.2-42.5H115.3z"/></g>
</svg>