<?xml version="1.0" encoding="utf-8"?>
<!-- Generator: Adobe Illustrator 16.0.0, SVG Export Plug-In . SVG Version: 6.00 Build 0)  -->
<!DOCTYPE svg PUBLIC "-//W3C//DTD SVG 1.1//EN" "http://www.w3.org/Graphics/SVG/1.1/DTD/svg11.dtd">
<svg version="1.1" id="Layer_1" xmlns="http://www.w3.org/2000/svg" xmlns:xlink="http://www.w3.org/1999/xlink" x="0px" y="0px"
	 width="1792px" height="1792px" viewBox="0 0 1792 1792" enable-background="new 0 0 1792 1792" xml:space="preserve">
<path fill="#565656" d="M1593,349L953,1629c-11.333,23.333-30.333,35-57,35c-3.333,0-8.333-0.667-15-2
	c-14.667-3.333-26.5-10.833-35.5-22.5S832,1614.667,832,1600v-576H256c-14.667,0-27.833-4.5-39.5-13.5S197.333,989.667,194,975
	s-2-28.667,4-42s15.667-23.333,29-30l1280-640c8.667-4.667,18.333-7,29-7c18,0,33,6.333,45,19c10,9.333,16.167,20.833,18.5,34.5
	S1599.667,336.333,1593,349z"/>
</svg>
