<?xml version="1.0" encoding="utf-8"?>
<!-- Generator: Adobe Illustrator 16.0.0, SVG Export Plug-In . SVG Version: 6.00 Build 0)  -->
<!DOCTYPE svg PUBLIC "-//W3C//DTD SVG 1.1//EN" "http://www.w3.org/Graphics/SVG/1.1/DTD/svg11.dtd">
<svg version="1.1" id="Layer_1" xmlns="http://www.w3.org/2000/svg" xmlns:xlink="http://www.w3.org/1999/xlink" x="0px" y="0px"
	 width="1792px" height="1792px" viewBox="0 0 1792 1792" enable-background="new 0 0 1792 1792" xml:space="preserve">
<path fill="#666666" d="M1325,1024h-109c-17.333,0-32.333-6.333-45-19s-19-27.667-19-45V832c0-17.333,6.333-32.333,19-45
	s27.667-19,45-19h109c-21.333-72-58.833-134.833-112.5-188.5S1096,488.333,1024,467v109c0,17.333-6.333,32.333-19,45
	s-27.667,19-45,19H832c-17.333,0-32.333-6.333-45-19s-19-27.667-19-45V467c-72,21.333-134.833,58.833-188.5,112.5
	S488.333,696,467,768h109c17.333,0,32.333,6.333,45,19s19,27.667,19,45v128c0,17.333-6.333,32.333-19,45s-27.667,19-45,19H467
	c21.333,72,58.833,134.833,112.5,188.5S696,1303.667,768,1325v-109c0-17.333,6.333-32.333,19-45s27.667-19,45-19h128
	c17.333,0,32.333,6.333,45,19s19,27.667,19,45v109c72-21.333,134.833-58.833,188.5-112.5S1303.667,1096,1325,1024z M1664,832v128
	c0,17.333-6.333,32.333-19,45s-27.667,19-45,19h-143c-24.667,107.333-76.167,200.167-154.5,278.5S1131.333,1432.333,1024,1457v143
	c0,17.333-6.333,32.333-19,45s-27.667,19-45,19H832c-17.333,0-32.333-6.333-45-19s-19-27.667-19-45v-143
	c-107.333-24.667-200.167-76.167-278.5-154.5S359.667,1131.333,335,1024H192c-17.333,0-32.333-6.333-45-19s-19-27.667-19-45V832
	c0-17.333,6.333-32.333,19-45s27.667-19,45-19h143c24.667-107.333,76.167-200.167,154.5-278.5S660.667,359.667,768,335V192
	c0-17.333,6.333-32.333,19-45s27.667-19,45-19h128c17.333,0,32.333,6.333,45,19s19,27.667,19,45v143
	c107.333,24.667,200.167,76.167,278.5,154.5S1432.333,660.667,1457,768h143c17.333,0,32.333,6.333,45,19S1664,814.667,1664,832z"/>
</svg>
