<?xml version="1.0" encoding="utf-8"?>
<!-- Generator: Adobe Illustrator 16.0.0, SVG Export Plug-In . SVG Version: 6.00 Build 0)  -->
<!DOCTYPE svg PUBLIC "-//W3C//DTD SVG 1.1//EN" "http://www.w3.org/Graphics/SVG/1.1/DTD/svg11.dtd">
<svg version="1.1" id="Layer_1" xmlns="http://www.w3.org/2000/svg" xmlns:xlink="http://www.w3.org/1999/xlink" x="0px" y="0px"
	 width="1792px" height="1792px" viewBox="0 0 1792 1792" enable-background="new 0 0 1792 1792" xml:space="preserve">
<path fill="#666666" d="M1152,640c0-70.667-25-131-75-181s-110.333-75-181-75s-131,25-181,75s-75,110.333-75,181s25,131,75,181
	s110.333,75,181,75s131-25,181-75S1152,710.667,1152,640z M1408,640c0,72.667-11,132.333-33,179l-364,774
	c-10.667,22-26.5,39.333-47.5,52s-43.5,19-67.5,19s-46.5-6.333-67.5-19s-36.5-30-46.5-52L417,819c-22-46.667-33-106.333-33-179
	c0-141.333,50-262,150-362s220.667-150,362-150s262,50,362,150S1408,498.667,1408,640z"/>
</svg>
