<?xml version="1.0" encoding="utf-8"?>
<!-- Generator: Adobe Illustrator 16.0.0, SVG Export Plug-In . SVG Version: 6.00 Build 0)  -->
<!DOCTYPE svg PUBLIC "-//W3C//DTD SVG 1.1//EN" "http://www.w3.org/Graphics/SVG/1.1/DTD/svg11.dtd">
<svg version="1.1" id="Layer_1" xmlns="http://www.w3.org/2000/svg" xmlns:xlink="http://www.w3.org/1999/xlink" x="0px" y="0px"
	 width="1792px" height="1792px" viewBox="0 0 1792 1792" enable-background="new 0 0 1792 1792" xml:space="preserve">
<path fill="#666666" d="M381,1620c0,53.333-18.167,95.333-54.5,126c-36.333,30.667-81.5,46-135.5,46c-70.667,0-128-22-172-66l57-88
	c32.667,30,68,45,106,45c19.333,0,36.167-4.833,50.5-14.5s21.5-23.833,21.5-42.5c0-42.667-35-61.333-105-56l-26-56
	c5.333-6.667,16.167-21.167,32.5-43.5s30.5-40.333,42.5-54s24.333-26.5,37-38.5v-1c-10.667,0-26.833,0.333-48.5,1s-37.833,1-48.5,1
	v53H32v-152h333v88l-95,115c34,8,61,24.333,81,49S381,1586,381,1620z M383,993v159H21c-4-24-6-42-6-54c0-34,7.833-65,23.5-93
	S73,954.333,95,937s44-33.167,66-47.5s40.833-28.833,56.5-43.5s23.5-29.667,23.5-45c0-16.667-4.833-29.5-14.5-38.5
	S203.667,749,187,749c-30.667,0-57.667,19.333-81,58l-85-59c16-34,39.833-60.5,71.5-79.5S159.333,640,198,640
	c48.667,0,89.667,13.833,123,41.5c33.333,27.667,50,65.167,50,112.5c0,33.333-11.333,63.833-34,91.5s-47.667,49.167-75,64.5
	s-52.5,32.167-75.5,50.5s-34.833,35.833-35.5,52.5h127v-60H383z M1792,1312v192c0,8.667-3.167,16.167-9.5,22.5s-13.833,9.5-22.5,9.5
	H544c-8.667,0-16.167-3.167-22.5-9.5s-9.5-13.833-9.5-22.5v-192c0-9.333,3-17,9-23s13.667-9,23-9h1216
	c8.667,0,16.167,3.167,22.5,9.5S1792,1303.333,1792,1312z M384,413v99H49v-99h107c0-27.333,0.167-67.833,0.5-121.5
	S157,197.333,157,170v-12h-2c-5.333,11.333-22,29.333-50,54l-71-76L170,9h106v404H384z M1792,800v192c0,8.667-3.167,16.167-9.5,22.5
	s-13.833,9.5-22.5,9.5H544c-8.667,0-16.167-3.167-22.5-9.5s-9.5-13.833-9.5-22.5V800c0-9.333,3-17,9-23s13.667-9,23-9h1216
	c8.667,0,16.167,3.167,22.5,9.5S1792,791.333,1792,800z M1792,288v192c0,8.667-3.167,16.167-9.5,22.5s-13.833,9.5-22.5,9.5H544
	c-8.667,0-16.167-3.167-22.5-9.5S512,488.667,512,480V288c0-8.667,3.167-16.167,9.5-22.5s13.833-9.5,22.5-9.5h1216
	c8.667,0,16.167,3.167,22.5,9.5S1792,279.333,1792,288z"/>
</svg>
