<?xml version="1.0" encoding="utf-8"?>
<!-- Generator: Adobe Illustrator 16.0.0, SVG Export Plug-In . SVG Version: 6.00 Build 0)  -->
<!DOCTYPE svg PUBLIC "-//W3C//DTD SVG 1.1//EN" "http://www.w3.org/Graphics/SVG/1.1/DTD/svg11.dtd">
<svg version="1.1" id="Layer_1" xmlns="http://www.w3.org/2000/svg" xmlns:xlink="http://www.w3.org/1999/xlink" x="0px" y="0px"
	 width="1792px" height="1792px" viewBox="0 0 1792 1792" enable-background="new 0 0 1792 1792" xml:space="preserve">
<path fill="#666666" d="M1408,1088c0,17.333-6.333,32.333-19,45l-448,448c-12.667,12.667-27.667,19-45,19s-32.333-6.333-45-19
	l-448-448c-12.667-12.667-19-27.667-19-45s6.333-32.333,19-45s27.667-19,45-19h896c17.333,0,32.333,6.333,45,19
	S1408,1070.667,1408,1088z M1408,704c0,17.333-6.333,32.333-19,45s-27.667,19-45,19H448c-17.333,0-32.333-6.333-45-19
	s-19-27.667-19-45s6.333-32.333,19-45l448-448c12.667-12.667,27.667-19,45-19s32.333,6.333,45,19l448,448
	C1401.667,671.667,1408,686.667,1408,704z"/>
</svg>
